<svg xmlns="http://www.w3.org/2000/svg" width="69" height="20" fill="none"><path fill="#000" d="M60.268.795c-1.162 0-1.915.046-2.507.136-1.436.205-2.575 2.864-1.914 3.364.182.137.501.114.957.023.706-.136 1.96-.318 3.692-.318 2.507 0 4.148.5 4.148 2.75v1.772h-3.875c-4.398 0-7.156 1.41-7.156 5.455 0 3.84 2.575 5.568 7.133 5.568 5.196 0 7.476-1.818 7.476-5.795V6.727c0-4.523-3.214-5.932-7.954-5.932Zm4.353 12.773c0 2.454-1.687 2.818-3.966 2.818-1.8 0-3.44-.364-3.44-2.5 0-1.84 1.161-2.568 3.554-2.568h3.875v2.25h-.023ZM15.19 12.363c0 4.523 2.438 7.137 7.84 7.137h.045c5.378-.023 7.84-2.614 7.84-7.137V3.954a2.584 2.584 0 0 0-2.576-2.568h-.592a.554.554 0 0 0-.547.545v10.432c0 2.319-.752 3.614-4.125 3.614s-4.125-1.296-4.125-3.614V3.931c0-1.159-.798-2.136-1.869-2.454-.478-.136-1.299-.114-1.299-.114a.554.554 0 0 0-.547.546v10.454h-.045ZM50.24 7.977c0-4.523-2.438-7.136-7.84-7.136h-.045c-5.378.022-7.84 2.613-7.84 7.136v8.954a2.584 2.584 0 0 0 2.576 2.569h.592c.297 0 .547-.25.547-.546V7.977c0-2.318.752-3.614 4.125-3.614S46.48 5.66 46.48 7.977v8.954c0 1.16.798 2.137 1.869 2.455.478.136 1.299.114 1.299.114.296 0 .547-.25.547-.546V7.977h.045ZM2.906 19.545H1.22a.756.756 0 0 1-.638-.364.751.751 0 0 1-.023-.727l4.148-8.09-4.148-7.91a.752.752 0 0 1 .023-.727.728.728 0 0 1 .638-.364h1.686c1.641 0 2.826.66 3.6 2.023l3.989 6.795a.348.348 0 0 1 0 .364l-3.92 6.795c-.889 1.5-2.05 2.205-3.669 2.205ZM1.196 2.09l4.24 8.114a.442.442 0 0 1 0 .341l-4.262 8.273h1.71c1.367 0 2.278-.546 3.03-1.841l3.83-6.614L5.868 3.75c-.661-1.137-1.595-1.66-2.986-1.66H1.197Z"/></svg>